<?xml version="1.0" standalone="no"?>
<!DOCTYPE svg PUBLIC "-//W3C//DTD SVG 20010904//EN"
 "http://www.w3.org/TR/2001/REC-SVG-20010904/DTD/svg10.dtd">
<svg version="1.0" xmlns="http://www.w3.org/2000/svg"
 width="512.000000pt" height="512.000000pt" viewBox="0 0 512.000000 512.000000"
 preserveAspectRatio="xMidYMid meet">
<metadata>
Created by potrace 1.14, written by Peter Selinger 2001-2017
</metadata>
<g transform="translate(0.000000,512.000000) scale(0.100000,-0.100000)"
fill="#000000" stroke="none">
<path d="M2440 5113 c-258 -18 -544 -60 -910 -133 -381 -77 -533 -113 -564
-134 -35 -22 -59 -73 -59 -121 1 -22 107 -408 237 -858 130 -449 236 -819 236
-821 0 -2 -18 -15 -41 -30 -58 -39 -261 -238 -331 -325 -210 -261 -351 -567
-413 -896 -25 -135 -35 -298 -35 -575 1 -360 18 -448 119 -603 294 -450 1117
-694 1996 -592 942 110 1719 579 1860 1124 36 139 29 426 -16 657 -85 443
-359 913 -679 1164 l-78 62 14 42 c26 72 44 233 56 509 13 310 4 458 -37 601
-98 338 -358 634 -710 809 -207 103 -393 138 -645 120z m1002 -640 c91 -28
170 -123 193 -230 6 -30 3 -34 -37 -59 -127 -81 -417 -199 -645 -263 -121 -34
-325 -82 -330 -77 -7 7 53 163 92 240 98 193 236 319 414 376 128 41 214 45
313 13z m184 -459 c36 -126 -25 -224 -142 -224 -48 0 -114 16 -114 27 0 9 223
253 231 253 5 0 16 -25 25 -56z m74 -336 c0 -90 -6 -187 -15 -236 -41 -234
-157 -580 -332 -991 -71 -166 -168 -380 -178 -389 -8 -9 -229 145 -310 216
-134 116 -209 218 -261 356 -15 39 -31 76 -36 82 -4 6 -19 53 -34 105 -22 79
-27 121 -31 265 -4 109 -1 202 7 256 l12 85 60 7 c163 17 449 89 651 166 115
43 307 137 397 194 30 19 58 35 63 35 4 1 7 -68 7 -151z m-582 77 c1 -1 -15
-25 -37 -52 -78 -100 -193 -124 -308 -67 -53 27 -123 98 -123 125 0 8 458 2
468 -6z"/>
<path d="M2835 2639 l44 -41 118 40 118 40 -162 1 -163 1 45 -41z"/>
</g>
</svg>
